<?xml version="1.0" standalone="no"?>
<!DOCTYPE svg PUBLIC "-//W3C//DTD SVG 20010904//EN"
 "http://www.w3.org/TR/2001/REC-SVG-20010904/DTD/svg10.dtd">
<svg version="1.0" xmlns="http://www.w3.org/2000/svg"
 width="512.000000pt" height="512.000000pt" viewBox="0 0 512.000000 512.000000"
 preserveAspectRatio="xMidYMid meet">

<g transform="translate(0.000000,512.000000) scale(0.100000,-0.100000)"
fill="#000000" stroke="none">
<path d="M4330 5095 c-76 -19 -140 -47 -208 -94 -61 -41 -149 -130 -179 -182
-17 -29 -37 -37 -47 -20 -10 15 -158 71 -231 86 -319 67 -661 -100 -809 -395
-37 -74 -61 -152 -82 -266 -11 -63 -299 -113 -569 -100 -253 13 -420 45 -522
102 -68 38 -90 41 -133 19 -40 -21 -47 -37 -65 -156 -29 -197 -96 -353 -212
-499 -66 -83 -171 -183 -239 -230 -124 -87 -310 -151 -477 -166 -122 -10 -149
-63 -103 -197 37 -108 50 -218 37 -307 -30 -191 -108 -402 -201 -541 -24 -35
-98 -119 -166 -185 -115 -112 -124 -124 -124 -159 0 -29 8 -45 34 -71 40 -40
65 -42 168 -14 208 56 503 71 650 32 92 -25 172 -64 192 -95 8 -12 18 -42 22
-67 11 -65 49 -100 108 -100 45 0 47 2 168 123 201 200 355 273 623 296 104 9
111 11 136 39 19 21 29 46 34 83 23 182 210 377 489 510 115 55 246 95 348
107 l70 9 23 -31 c76 -102 115 -225 122 -387 13 -300 -76 -547 -283 -783 -105
-120 -96 -173 38 -240 140 -69 226 -158 319 -328 64 -118 101 -206 132 -316
18 -68 21 -104 21 -295 l1 -219 30 -24 c35 -28 90 -32 123 -8 12 8 56 66 96
127 158 240 353 422 510 478 85 30 126 27 182 -10 52 -34 97 -40 132 -15 44
30 52 64 52 213 0 158 14 244 61 360 41 103 106 204 189 296 85 94 90 120 35
205 -55 85 -79 176 -79 300 1 267 125 580 310 780 70 76 79 110 44 167 -13 23
-31 35 -60 42 -22 6 -57 15 -79 21 -70 18 -129 103 -150 215 -16 88 -14 123
15 183 83 175 101 337 59 517 l-13 60 59 58 c70 70 129 165 161 262 19 59 23
90 22 195 0 115 -3 132 -31 207 -40 105 -87 176 -171 255 -122 114 -262 169
-432 167 -52 0 -120 -7 -150 -14z m-2564 -1130 c112 -35 314 -58 509 -58 199
-1 310 10 434 44 40 11 76 17 79 14 3 -3 13 -26 22 -52 10 -27 21 -56 25 -65
5 -14 -11 -26 -85 -63 -167 -84 -439 -263 -715 -469 -176 -131 -650 -511 -706
-566 -43 -41 -49 -51 -49 -87 0 -82 82 -135 154 -100 17 8 63 42 101 74 117
99 461 373 610 484 295 222 529 376 711 470 l112 57 38 -39 c22 -22 63 -56 92
-76 28 -20 52 -37 52 -38 0 -1 -21 -33 -46 -71 -113 -169 -175 -328 -182 -466
l-4 -96 -77 -17 c-385 -86 -781 -371 -882 -635 -32 -86 -31 -84 -98 -92 -175
-20 -408 -118 -534 -225 -38 -32 -80 -67 -93 -77 l-24 -20 -38 37 c-64 62
-251 134 -411 158 -51 7 -130 10 -198 6 -62 -3 -113 -4 -113 -1 0 2 15 27 34
56 77 121 146 291 192 473 23 91 27 133 28 245 1 74 -2 154 -6 177 l-8 41 51
11 c181 39 375 138 524 268 180 156 346 414 407 633 13 44 28 80 34 80 6 0 33
-7 60 -15z m1719 -568 c87 -147 180 -250 277 -305 51 -30 56 -35 48 -55 -36
-84 -72 -301 -91 -541 -21 -279 2 -862 37 -932 40 -79 160 -75 194 7 10 23 10
64 -1 197 -16 215 -17 650 0 817 21 214 65 403 92 397 31 -8 219 -2 264 8 88
19 171 50 230 85 63 38 75 42 75 21 0 -37 77 -164 137 -223 l64 -64 -47 -72
c-223 -338 -299 -812 -175 -1092 l19 -43 -32 -39 c-135 -159 -221 -363 -247
-588 l-13 -105 -51 0 c-152 0 -449 -168 -584 -330 l-48 -57 -22 96 c-68 287
-210 544 -395 716 l-89 83 30 39 c83 106 168 286 208 438 52 200 58 437 16
600 -27 103 -95 243 -157 323 -75 97 -84 114 -84 157 1 99 65 250 169 396 l62
86 56 -9 c32 -5 58 -10 58 -11z"/>
</g>
</svg>
